<svg width="114" height="97" viewBox="0 0 114 97" fill="none" xmlns="http://www.w3.org/2000/svg">
<path fill-rule="evenodd" clip-rule="evenodd" d="M56.9995 74.6613L6.53562 48.4523L0.00199897 53.1393L0 56.0063L56.9995 96.9043L113.996 56.0083L114 53.1423L107.463 48.4523L56.9995 74.6613Z" fill="white" fill-opacity="0.5"/>
<path fill-rule="evenodd" clip-rule="evenodd" d="M0.00299845 40.896L56.9995 0L113.999 40.898L113.996 43.765L56.9995 84.662L0 43.763L0.00299845 40.896ZM57.5072 30.774L64.4566 40.362L64.3817 40.417L51.5813 35.111L46.9047 38.534L54.153 47.878L54.079 47.933L41.0178 42.844L35.0739 47.196L60.0599 56.24L65.0343 52.598L57.4693 42.913L57.5262 42.872L70.8104 48.37L75.7848 44.727L63.4322 26.436L57.5072 30.774Z" fill="white"/>
</svg>
